<svg width="414" height="358" viewBox="0 0 414 358" fill="none" xmlns="http://www.w3.org/2000/svg">
  <rect width="414" height="358" rx="24" fill="#050505"/>
  <path d="M59 246C92 184 157 150 214 150C269 150 323 178 351 228" stroke="#FF9933" stroke-width="18" stroke-linecap="round" opacity="0.7"/>
  <path d="M61 263C92 311 145 340 202 340C259 340 321 310 351 265" stroke="#138808" stroke-width="18" stroke-linecap="round" opacity="0.7"/>
  <circle cx="118" cy="92" r="42" fill="#F7D7B5"/>
  <circle cx="118" cy="92" r="42" fill="#FFF6EA" opacity="0.14"/>
  <circle cx="118" cy="79" r="15" fill="#1F1A17"/>
  <path d="M101 112C107 101 128 101 134 112V131H101V112Z" fill="#FFB87A"/>
  <path d="M96 83C98 66 109 58 118 58C129 58 141 66 144 83C133 78 108 78 96 83Z" fill="#1A1614"/>
  <circle cx="318" cy="86" r="40" fill="#D4A67F"/>
  <circle cx="318" cy="86" r="40" fill="#FFF6EA" opacity="0.12"/>
  <circle cx="318" cy="74" r="14" fill="#1E130E"/>
  <path d="M301 104C307 94 329 94 335 104V122H301V104Z" fill="#FFE0C6"/>
  <path d="M296 81C299 67 307 60 318 60C330 60 341 67 344 81C334 76 305 76 296 81Z" fill="#221814"/>
  <circle cx="68" cy="236" r="37" fill="#E9C1A1"/>
  <circle cx="68" cy="236" r="37" fill="#FFF6EA" opacity="0.12"/>
  <circle cx="68" cy="225" r="13" fill="#281F1A"/>
  <path d="M52 255C57 244 79 244 84 255V271H52V255Z" fill="#FFD4B3"/>
  <path d="M47 233C49 219 58 211 68 211C78 211 88 219 90 233C80 228 56 228 47 233Z" fill="#2B2019"/>
  <circle cx="195" cy="214" r="52" fill="#F1CFB1"/>
  <circle cx="195" cy="214" r="52" fill="#FFF6EA" opacity="0.12"/>
  <circle cx="195" cy="197" r="18" fill="#1A1612"/>
  <path d="M172 233C179 219 208 219 215 233V257H172V233Z" fill="#F8C9A8"/>
  <path d="M166 201C169 180 182 168 195 168C210 168 223 180 226 201C215 194 177 194 166 201Z" fill="#201814"/>
  <circle cx="304" cy="236" r="41" fill="#DCA986"/>
  <circle cx="304" cy="236" r="41" fill="#FFF6EA" opacity="0.12"/>
  <circle cx="304" cy="223" r="14" fill="#1C1512"/>
  <path d="M287 255C293 244 315 244 321 255V272H287V255Z" fill="#FFE5CD"/>
  <path d="M282 231C285 216 294 208 304 208C315 208 325 216 328 231C318 226 291 226 282 231Z" fill="#251B17"/>
  <circle cx="161" cy="292" r="28" fill="#E6B08D"/>
  <circle cx="161" cy="292" r="28" fill="#FFF6EA" opacity="0.12"/>
  <circle cx="161" cy="282" r="10" fill="#241C18"/>
  <path d="M150 306C154 299 168 299 172 306V318H150V306Z" fill="#FFD8BF"/>
  <path d="M147 286C149 275 155 269 161 269C168 269 174 275 176 286C169 282 153 282 147 286Z" fill="#2B2019"/>
  <circle cx="236" cy="86" r="18" fill="#FF9933" opacity="0.9"/>
  <circle cx="236" cy="86" r="7" fill="#FFFFFF" opacity="0.9"/>
  <circle cx="236" cy="86" r="2.5" fill="#138808"/>
  <text x="24" y="39" fill="#FFFFFF" font-family="Arial, sans-serif" font-size="20" font-weight="700">India riders</text>
  <text x="24" y="62" fill="#FFB300" font-family="Arial, sans-serif" font-size="13">Trusted by everyday city trips</text>
</svg>
